    <svg
      width="118"
      height="29"
      viewBox="0 0 118 29"
      fill="none"
      xmlns="http://www.w3.org/2000/svg"
    >
      <path
        d="M21.1344 0.0242155C19.3129 -0.249441 17.3833 1.82713 16.8276 4.69247C16.2718 7.54172 17.2752 10.0851 19.0968 10.3749C20.9029 10.6646 22.8479 8.58805 23.4191 5.72271C23.9903 2.87346 22.956 0.330067 21.1344 0.0242155ZM10.0971 0.0242155C8.26013 0.330067 7.2413 2.87346 7.78159 5.72271C8.36819 8.58805 10.2978 10.6646 12.1193 10.3749C13.9563 10.0851 14.9597 7.54172 14.3885 4.69247C13.8328 1.82713 11.9032 -0.249441 10.0971 0.0242155ZM29.3931 7.42904C27.6333 6.64026 25.2406 8.07294 23.9903 10.568C22.8171 13.1114 23.2184 15.7836 24.9628 16.5724C26.7071 17.3612 29.0844 15.9446 30.3039 13.4173C31.5234 10.89 31.0912 8.20172 29.3931 7.42904ZM1.60685 7.42904C-0.091198 8.20172 -0.52343 10.89 0.696079 13.4173C1.91559 15.9446 4.29286 17.3612 6.03723 16.5724C7.78159 15.7836 8.18294 13.1114 7.00974 10.568C5.75936 8.07294 3.36665 6.64026 1.60685 7.42904ZM4.1848 24.7821C4.12306 26.2952 5.23451 27.9694 6.56207 28.5972C9.32527 29.9172 12.5979 27.1806 15.6698 27.1806C18.7417 27.1806 22.0452 30.0298 24.7621 28.5972C26.3058 27.8084 27.3709 25.7157 27.1702 23.9772C26.8924 21.5787 24.1292 20.2909 22.4929 18.5363C20.3163 16.2665 18.7726 12.0007 15.6698 12.0007C12.5824 12.0007 10.9461 16.2021 8.86217 18.5363C7.14868 20.5002 4.29286 22.1582 4.1848 24.7821Z"
        fill="white"
      />
      <path
        d="M54.4152 15.2614C54.4152 17.1326 53.9859 18.6402 53.1275 19.7841C52.2691 20.928 51.1068 21.5 49.6406 21.5C48.144 21.5 46.9665 21.0265 46.1081 20.0795V26H44V8.97727H45.9258L46.0283 10.3409C46.8868 9.2803 48.0795 8.75 49.6064 8.75C51.0878 8.75 52.2577 9.30682 53.1161 10.4205C53.9821 11.5341 54.4152 13.0833 54.4152 15.0682V15.2614ZM52.3071 15.0227C52.3071 13.6364 52.0108 12.5417 51.4182 11.7386C50.8257 10.9356 50.0128 10.5341 48.9797 10.5341C47.7034 10.5341 46.7462 11.0985 46.1081 12.2273V18.1023C46.7386 19.2235 47.7034 19.7841 49.0025 19.7841C50.0128 19.7841 50.8143 19.3864 51.4068 18.5909C52.007 17.7879 52.3071 16.5985 52.3071 15.0227Z"
        fill="white"
      />
      <path
        d="M62.2208 21.5C60.5495 21.5 59.1897 20.9545 58.1414 19.8636C57.093 18.7652 56.5688 17.2992 56.5688 15.4659V15.0795C56.5688 13.8598 56.8005 12.7727 57.2639 11.8182C57.7349 10.8561 58.3883 10.1061 59.2239 9.56818C60.0671 9.02273 60.9788 8.75 61.9587 8.75C63.5616 8.75 64.8075 9.27652 65.6963 10.3295C66.5852 11.3826 67.0296 12.8902 67.0296 14.8523V15.7273H58.6769C58.7073 16.9394 59.0606 17.9205 59.7367 18.6705C60.4204 19.4129 61.2864 19.7841 62.3348 19.7841C63.0793 19.7841 63.7098 19.6326 64.2264 19.3295C64.7429 19.0265 65.1949 18.625 65.5824 18.125L66.87 19.125C65.8369 20.7083 64.2871 21.5 62.2208 21.5ZM61.9587 10.4773C61.1079 10.4773 60.3938 10.7879 59.8164 11.4091C59.2391 12.0227 58.882 12.8864 58.7453 14H64.9215V13.8409C64.8607 12.7727 64.572 11.947 64.0554 11.3636C63.5389 10.7727 62.84 10.4773 61.9587 10.4773Z"
        fill="white"
      />
      <path
        d="M72.3397 6V8.97727H74.6415V10.6023H72.3397V18.2273C72.3397 18.7197 72.4423 19.0909 72.6474 19.3409C72.8525 19.5833 73.2019 19.7045 73.6957 19.7045C73.9388 19.7045 74.2731 19.6591 74.6985 19.5682V21.2727C74.1439 21.4242 73.6046 21.5 73.0804 21.5C72.1384 21.5 71.4281 21.2159 70.9495 20.6477C70.4709 20.0795 70.2316 19.2727 70.2316 18.2273V10.6023H67.9868V8.97727H70.2316V6H72.3397Z"
        fill="white"
      />
      <path
        d="M84.2932 18.0114C84.2932 17.4432 84.0767 17.0038 83.6437 16.6932C83.2183 16.375 82.47 16.1023 81.3988 15.875C80.3353 15.6477 79.4882 15.375 78.8577 15.0568C78.2348 14.7386 77.7714 14.3598 77.4675 13.9205C77.1712 13.4811 77.0231 12.9583 77.0231 12.3523C77.0231 11.3447 77.4485 10.4924 78.2994 9.79545C79.1578 9.09848 80.2517 8.75 81.5812 8.75C82.979 8.75 84.1109 9.10985 84.9769 9.82955C85.8505 10.5492 86.2873 11.4697 86.2873 12.5909H84.1678C84.1678 12.0152 83.921 11.5189 83.4272 11.1023C82.941 10.6856 82.3256 10.4773 81.5812 10.4773C80.8139 10.4773 80.2137 10.6439 79.7807 10.9773C79.3477 11.3106 79.1312 11.7462 79.1312 12.2841C79.1312 12.7917 79.3325 13.1742 79.7351 13.4318C80.1378 13.6894 80.8633 13.9356 81.9116 14.1705C82.9676 14.4053 83.8222 14.6856 84.4755 15.0114C85.1288 15.3371 85.6112 15.7311 85.9227 16.1932C86.2418 16.6477 86.4013 17.2045 86.4013 17.8636C86.4013 18.9621 85.9607 19.8447 85.0795 20.5114C84.1982 21.1705 83.0549 21.5 81.6495 21.5C80.6619 21.5 79.7883 21.3258 79.0286 20.9773C78.269 20.6288 77.6726 20.1439 77.2396 19.5227C76.8142 18.8939 76.6015 18.2159 76.6015 17.4886H78.7096C78.7476 18.1932 79.0286 18.7538 79.5528 19.1705C80.0846 19.5795 80.7835 19.7841 81.6495 19.7841C82.4472 19.7841 83.0853 19.625 83.5639 19.3068C84.0501 18.9811 84.2932 18.5492 84.2932 18.0114Z"
        fill="white"
      />
      <path
        d="M88.5892 15.0114C88.5892 13.8068 88.8247 12.7235 89.2957 11.7614C89.7743 10.7992 90.4352 10.0568 91.2784 9.53409C92.1292 9.01136 93.0978 8.75 94.1842 8.75C95.8631 8.75 97.2191 9.32955 98.2522 10.4886C99.293 11.6477 99.8134 13.1894 99.8134 15.1136V15.2614C99.8134 16.4583 99.5817 17.5341 99.1183 18.4886C98.6625 19.4356 98.0053 20.1742 97.1469 20.7045C96.2961 21.2348 95.3161 21.5 94.207 21.5C92.5357 21.5 91.1797 20.9205 90.1389 19.7614C89.1057 18.6023 88.5892 17.0682 88.5892 15.1591V15.0114ZM90.7087 15.2614C90.7087 16.625 91.0239 17.7197 91.6544 18.5455C92.2926 19.3712 93.1434 19.7841 94.207 19.7841C95.2781 19.7841 96.1289 19.3674 96.7595 18.5341C97.39 17.6932 97.7053 16.5189 97.7053 15.0114C97.7053 13.6629 97.3824 12.572 96.7367 11.7386C96.0986 10.8977 95.2477 10.4773 94.1842 10.4773C93.1434 10.4773 92.304 10.8902 91.6658 11.7159C91.0277 12.5417 90.7087 13.7235 90.7087 15.2614Z"
        fill="white"
      />
      <path
        d="M104.451 8.97727L104.52 10.5227C105.462 9.34091 106.692 8.75 108.212 8.75C110.817 8.75 112.132 10.2159 112.154 13.1477V21.2727H110.046V13.1364C110.039 12.25 109.833 11.5947 109.431 11.1705C109.036 10.7462 108.417 10.5341 107.573 10.5341C106.89 10.5341 106.29 10.7159 105.773 11.0795C105.256 11.4432 104.854 11.9205 104.565 12.5114V21.2727H102.457V8.97727H104.451Z"
        fill="white"
      />
      <path
        d="M115.379 20.1705C115.379 19.8068 115.485 19.5038 115.698 19.2614C115.918 19.0189 116.245 18.8977 116.678 18.8977C117.111 18.8977 117.438 19.0189 117.658 19.2614C117.886 19.5038 118 19.8068 118 20.1705C118 20.5189 117.886 20.8106 117.658 21.0455C117.438 21.2803 117.111 21.3977 116.678 21.3977C116.245 21.3977 115.918 21.2803 115.698 21.0455C115.485 20.8106 115.379 20.5189 115.379 20.1705Z"
        fill="white"
      />
    </svg>