      <svg
        width="100"
        height="90"
        viewBox="0 0 100 90"
        fill="none"
        xmlns="http://www.w3.org/2000/svg"
      >
        <path
          d="M59.0402 0.0437449C55.8041 -0.450611 52.3759 3.30068 51.3886 8.47688C50.4013 13.624 52.184 18.2186 55.4201 18.742C58.6289 19.2655 62.0844 15.5142 63.0991 10.338C64.1139 5.19086 62.2764 0.596261 59.0402 0.0437449ZM39.4313 0.0437449C36.1677 0.596261 34.3577 5.19086 35.3175 10.338C36.3597 15.5142 39.7878 19.2655 43.024 18.742C46.2876 18.2186 48.0702 13.624 47.0555 8.47688C46.0682 3.30068 42.64 -0.450611 39.4313 0.0437449ZM73.7126 13.4204C70.5862 11.9955 66.3353 14.5836 64.1139 19.091C62.0296 23.6856 62.7426 28.5128 65.8416 29.9378C68.9407 31.3627 73.1641 28.8036 75.3307 24.2381C77.4973 19.6726 76.7294 14.8163 73.7126 13.4204ZM24.3475 13.4204C21.3307 14.8163 20.5628 19.6726 22.7294 24.2381C24.896 28.8036 29.1195 31.3627 32.2185 29.9378C35.3175 28.5128 36.0306 23.6856 33.9463 19.091C31.7249 14.5836 27.474 11.9955 24.3475 13.4204ZM28.9275 44.7684C28.8178 47.5019 30.7924 50.5262 33.151 51.6603C38.06 54.0449 43.8742 49.1013 49.3318 49.1013C54.7893 49.1013 60.6583 54.2484 65.4851 51.6603C68.2276 50.2354 70.12 46.4551 69.7634 43.3144C69.2698 38.9816 64.3607 36.6552 61.4536 33.4855C57.5867 29.3852 54.8442 21.6791 49.3318 21.6791C43.8467 21.6791 40.9397 29.2689 37.2373 33.4855C34.1931 37.0332 29.1195 40.0284 28.9275 44.7684Z"
          fill="#4EC690"
        />
        <path
          d="M13.9905 75.5748C13.9905 78.0884 13.4139 80.1135 12.2608 81.6501C11.1077 83.1867 9.5464 83.955 7.57691 83.955C5.56661 83.955 3.98489 83.319 2.83177 82.047V89.9998H0V67.1335H2.58686L2.72463 68.9652C3.87775 67.5405 5.47987 66.8282 7.53099 66.8282C9.52089 66.8282 11.0924 67.5761 12.2455 69.0721C13.4088 70.568 13.9905 72.6491 13.9905 75.3153V75.5748ZM11.1587 75.2542C11.1587 73.392 10.7607 71.9215 9.96479 70.8428C9.16883 69.7641 8.07694 69.2247 6.68911 69.2247C4.97474 69.2247 3.68896 69.9829 2.83177 71.4991V79.3909C3.67876 80.897 4.97474 81.6501 6.71973 81.6501C8.07694 81.6501 9.15352 81.1158 9.94948 80.0473C10.7556 78.9686 11.1587 77.3709 11.1587 75.2542Z"
          fill="#4EC690"
        />
        <path
          d="M24.4757 83.955C22.2307 83.955 20.4041 83.2223 18.9959 81.7569C17.5876 80.2814 16.8835 78.3122 16.8835 75.8496V75.3306C16.8835 73.6922 17.1947 72.2318 17.8172 70.9496C18.4499 69.6572 19.3275 68.6498 20.45 67.9272C21.5827 67.1945 22.8073 66.8282 24.1237 66.8282C26.2768 66.8282 27.9504 67.5354 29.1443 68.95C30.3383 70.3645 30.9352 72.3896 30.9352 75.0253V76.2006H19.7153C19.7561 77.8289 20.2306 79.1467 21.1388 80.1542C22.0572 81.1515 23.2206 81.6501 24.6288 81.6501C25.6288 81.6501 26.4758 81.4466 27.1697 81.0395C27.8636 80.6325 28.4708 80.0931 28.9913 79.4215L30.7209 80.7647C29.3331 82.8916 27.2514 83.955 24.4757 83.955ZM24.1237 69.1484C22.9807 69.1484 22.0215 69.5656 21.246 70.4001C20.4704 71.2244 19.9908 72.3845 19.8071 73.8804H28.1035V73.6667C28.0218 72.2318 27.634 71.1226 26.9401 70.339C26.2462 69.5453 25.3074 69.1484 24.1237 69.1484Z"
          fill="#4EC690"
        />
        <path
          d="M38.0682 63.1342V67.1335H41.1602V69.3163H38.0682V79.5588C38.0682 80.2203 38.206 80.719 38.4815 81.0548C38.757 81.3804 39.2265 81.5432 39.8898 81.5432C40.2163 81.5432 40.6653 81.4822 41.2368 81.3601V83.6498C40.4918 83.8533 39.7673 83.955 39.0632 83.955C37.7978 83.955 36.8437 83.5734 36.2008 82.8102C35.5579 82.047 35.2365 80.9632 35.2365 79.5588V69.3163H32.221V67.1335H35.2365V63.1342H38.0682Z"
          fill="#4EC690"
        />
        <path
          d="M54.1252 79.2688C54.1252 78.5056 53.8343 77.9154 53.2527 77.4981C52.6812 77.0707 51.6761 76.7044 50.2372 76.3991C48.8086 76.0938 47.6708 75.7274 46.8238 75.3C45.987 74.8726 45.3645 74.3638 44.9563 73.7736C44.5584 73.1833 44.3594 72.4812 44.3594 71.6671C44.3594 70.3136 44.9308 69.1688 46.0737 68.2325C47.2269 67.2963 48.6963 66.8282 50.4821 66.8282C52.3598 66.8282 53.8803 67.3116 55.0436 68.2783C56.2171 69.2451 56.8039 70.4815 56.8039 71.9876H53.9568C53.9568 71.2142 53.6251 70.5477 52.9618 69.988C52.3088 69.4283 51.4822 69.1484 50.4821 69.1484C49.4515 69.1484 48.6453 69.3723 48.0636 69.82C47.482 70.2678 47.1911 70.8529 47.1911 71.5755C47.1911 72.2573 47.4616 72.7712 48.0024 73.1172C48.5433 73.4632 49.5178 73.7939 50.926 74.1094C52.3445 74.4249 53.4925 74.8014 54.3701 75.239C55.2477 75.6766 55.8957 76.2057 56.3141 76.8265C56.7426 77.4371 56.9569 78.185 56.9569 79.0704C56.9569 80.546 56.3651 81.7315 55.1813 82.627C53.9976 83.5124 52.4618 83.955 50.574 83.955C49.2474 83.955 48.0738 83.721 47.0534 83.2529C46.0329 82.7848 45.2319 82.1335 44.6502 81.299C44.0787 80.4544 43.793 79.5436 43.793 78.5666H46.6248C46.6758 79.5131 47.0534 80.2661 47.7575 80.8258C48.4718 81.3753 49.4106 81.6501 50.574 81.6501C51.6455 81.6501 52.5026 81.4364 53.1455 81.009C53.7986 80.5714 54.1252 79.9913 54.1252 79.2688Z"
          fill="#4EC690"
        />
        <path
          d="M59.8959 75.239C59.8959 73.6209 60.2122 72.1657 60.8449 70.8733C61.4878 69.5809 62.3756 68.5836 63.5083 67.8814C64.6512 67.1793 65.9523 66.8282 67.4116 66.8282C69.6668 66.8282 71.4883 67.6067 72.8761 69.1637C74.2741 70.7207 74.9732 72.7915 74.9732 75.3764V75.5748C74.9732 77.1827 74.6619 78.6277 74.0394 79.9099C73.4272 81.182 72.5445 82.1742 71.3913 82.8865C70.2484 83.5989 68.932 83.955 67.4422 83.955C65.1972 83.955 63.3756 83.1766 61.9776 81.6196C60.5898 80.0626 59.8959 78.0019 59.8959 75.4374V75.239ZM62.743 75.5748C62.743 77.4065 63.1664 78.877 64.0134 79.9863C64.8706 81.0955 66.0135 81.6501 67.4422 81.6501C68.881 81.6501 70.0239 81.0904 70.8709 79.971C71.7179 78.8414 72.1414 77.2641 72.1414 75.239C72.1414 73.4276 71.7077 71.9622 70.8403 70.8428C69.9831 69.7132 68.8402 69.1484 67.4116 69.1484C66.0135 69.1484 64.8859 69.703 64.0287 70.8122C63.1715 71.9215 62.743 73.509 62.743 75.5748Z"
          fill="#4EC690"
        />
        <path
          d="M81.2031 67.1335L81.2949 69.2095C82.5603 67.6219 84.2134 66.8282 86.2543 66.8282C89.7545 66.8282 91.5199 68.7973 91.5505 72.7356V83.6498H88.7187V72.7203C88.7085 71.5297 88.433 70.6494 87.8922 70.0795C87.3615 69.5097 86.5299 69.2247 85.3971 69.2247C84.4787 69.2247 83.6726 69.469 82.9787 69.9574C82.2848 70.4459 81.7439 71.087 81.3561 71.8808V83.6498H78.5244V67.1335H81.2031Z"
          fill="#4EC690"
        />
        <path
          d="M95.8824 82.1691C95.8824 81.6806 96.0252 81.2736 96.311 80.9479C96.6069 80.6223 97.0457 80.4595 97.6274 80.4595C98.209 80.4595 98.6478 80.6223 98.9437 80.9479C99.2499 81.2736 99.403 81.6806 99.403 82.1691C99.403 82.6372 99.2499 83.029 98.9437 83.3445C98.6478 83.6599 98.209 83.8177 97.6274 83.8177C97.0457 83.8177 96.6069 83.6599 96.311 83.3445C96.0252 83.029 95.8824 82.6372 95.8824 82.1691Z"
          fill="#4EC690"
        />
      </svg>